<?xml version="1.0" ?><svg height="32px" style="enable-background:new 0 0 32 32;" version="1.1" viewBox="0 0 32 32" width="32px" xml:space="preserve" xmlns="http://www.w3.org/2000/svg" xmlns:xlink="http://www.w3.org/1999/xlink"><style type="text/css">
	.st0{fill:none;stroke:#434345;stroke-width:2;stroke-linecap:round;stroke-linejoin:round;stroke-miterlimit:10;}
	.st1{fill:#434345;}
</style><g id="Layer_2"/><g id="Layer_1"><path class="st0" d="M17.89001,15.90997c-0.62,1.04999-1.40002,1.98999-2.29004,2.70001   c-0.03998,0.03003-0.07996,0.06-0.12,0.09003C14.44,19.51001,13.26001,20,12,20s-2.44-0.48999-3.47998-1.29999   c-0.04004-0.03003-0.08002-0.06-0.12-0.09003C6.07001,16.73999,4.5,13.32996,4.5,10.5C4.5,6.35999,7.85999,3,12,3   c0.69,0,1.35999,0.08997,2,0.27997V13h3.57001c-0.5,1.14996-1.41998,2.07001-2.57001,2.57996C15.60999,15.84998,16.28998,16,17,16   C17.29999,16,17.59998,15.96997,17.89001,15.90997z"/><path class="st0" d="M23,29v2H1v-2c0-4.82001,3.09003-8.91003,7.40002-10.39001c0.03998,0.03003,0.07996,0.06,0.12,0.09003   C9.56,19.51001,10.73999,20,12,20s2.44-0.48999,3.47998-1.29999c0.04004-0.03003,0.08002-0.06,0.12-0.09003   C19.90997,20.08997,23,24.17999,23,29z"/><path class="st0" d="M31,1v12h-9.41998c-0.66003,1.5-2.03003,2.62-3.69,2.90997C17.59998,15.96997,17.29999,16,17,16   c-0.71002,0-1.39001-0.15002-2-0.42004c1.15002-0.50995,2.07001-1.42999,2.57001-2.57996H14V1H31z"/></g></svg>