<?xml version="1.0" ?><svg id="Icons" style="enable-background:new 0 0 32 32;" version="1.1" viewBox="0 0 32 32" xml:space="preserve" xmlns="http://www.w3.org/2000/svg" xmlns:xlink="http://www.w3.org/1999/xlink"><style type="text/css">
	.st0{fill:none;stroke:#000000;stroke-width:2;stroke-linecap:round;stroke-linejoin:round;stroke-miterlimit:10;}
	.st1{fill:none;stroke:#000000;stroke-width:2;stroke-linejoin:round;stroke-miterlimit:10;}
</style><path class="st0" d="M28.8,17.2c-1.1,0.2-2,0-2.4-0.7c-0.4-0.7-0.1-1.7,0.6-2.5c-0.9-0.9-1.9-1.5-3.1-1.8c-0.3,1-1,1.8-1.8,1.8  s-1.5-0.7-1.8-1.8c-1.2,0.3-2.3,0.9-3.1,1.8c0.7,0.8,1,1.8,0.6,2.5c-0.4,0.7-1.4,0.9-2.4,0.7C15.1,17.8,15,18.4,15,19  s0.1,1.2,0.2,1.8c1.1-0.2,2,0,2.4,0.7c0.4,0.7,0.1,1.7-0.6,2.5c0.9,0.9,1.9,1.5,3.1,1.8c0.3-1,1-1.8,1.8-1.8s1.5,0.7,1.8,1.8  c1.2-0.3,2.3-0.9,3.1-1.8c-0.7-0.8-1-1.8-0.6-2.5c0.4-0.7,1.4-0.9,2.4-0.7c0.2-0.6,0.2-1.2,0.2-1.8S28.9,17.8,28.8,17.2z"/><circle class="st0" cx="22" cy="19" r="2"/><polyline class="st0" points="19,3 19,9 25,9 19,3 7,3 7,29 25,29 25,25.3 "/><line class="st0" x1="25" x2="25" y1="9" y2="12"/></svg>